
#
# '/mnt/sdcard/Download/cds-data/audio/Track_10 (45s 96kbps).mp3'
#
General
Count                                    : 284
Count of stream of this kind             : 1
Kind of stream                           : General
Kind of stream                           : General
Stream identifier                        : 0
Count of audio streams                   : 1
Audio_Format_List                        : MPEG Audio
Audio_Format_WithHint_List               : MPEG Audio
Audio codecs                             : MPEG-1 Audio layer 3
Complete name                            : /mnt/sdcard/Download/cds-data/audio/Track_10 (45s 96kbps).mp3
Folder name                              : /mnt/sdcard/Download/cds-data/audio
File name                                : Track_10 (45s 96kbps)
File extension                           : mp3
Format                                   : MPEG Audio
Format                                   : MPEG Audio
Format/Extensions usually used           : m1a mpa1 mp1 m2a mpa2 mp2 mp3
Commercial name                          : MPEG Audio
Internet media type                      : audio/mpeg
Codec                                    : MPEG Audio
Codec                                    : MPEG Audio
Codec/Extensions usually used            : m1a mpa1 mp1 m2a mpa2 mp2 mp3
File size                                : 540992
File size                                : 528 KiB
File size                                : 528 KiB
File size                                : 528 KiB
File size                                : 528 KiB
File size                                : 528.3 KiB
Duration                                 : 45036
Duration                                 : 45s 36ms
Duration                                 : 45s 36ms
Duration                                 : 45s 36ms
Duration                                 : 00:00:45.036
Overall bit rate mode                    : CBR
Overall bit rate mode                    : Constant
Overall bit rate                         : 96000
Overall bit rate                         : 96.0 Kbps
Stream size                              : 128
Stream size                              : 128 Bytes (0%)
Stream size                              : 128 Bytes
Stream size                              : 128 Bytes
Stream size                              : 128 Bytes
Stream size                              : 128.0 Bytes
Stream size                              : 128 Bytes (0%)
Proportion of this stream                : 0.00024
Title                                    : Track_10
Album                                    : Album_1
Track name                               : Track_10
Performer                                : Andrew
File last modification date              : UTC 2014-11-26 06:29:51
File last modification date (local)      : 2014-11-26 15:29:51
Writing library                          : LAME3.99r
Writing library                          : LAME3.99r

Audio
Count                                    : 222
Count of stream of this kind             : 1
Kind of stream                           : Audio
Kind of stream                           : Audio
Stream identifier                        : 0
Format                                   : MPEG Audio
Commercial name                          : MPEG Audio
Format version                           : Version 1
Format profile                           : Layer 3
Format settings                          : Joint stereo / MS Stereo
Mode                                     : Joint stereo
Mode extension                           : MS Stereo
Internet media type                      : audio/mpeg
Codec                                    : MPA1L3
Codec                                    : MPEG-1 Audio layer 3
Codec profile                            : Joint stereo
Duration                                 : 45036
Duration                                 : 45s 36ms
Duration                                 : 45s 36ms
Duration                                 : 45s 36ms
Duration                                 : 00:00:45.036
Bit rate mode                            : CBR
Bit rate mode                            : Constant
Bit rate                                 : 96000
Bit rate                                 : 96.0 Kbps
Channel(s)                               : 2
Channel(s)                               : 2 channels
Sampling rate                            : 32000
Sampling rate                            : 32.0 KHz
Samples count                            : 1441152
Frame count                              : 1251
Compression mode                         : Lossy
Compression mode                         : Lossy
Stream size                              : 540432
Stream size                              : 528 KiB (100%)
Stream size                              : 528 KiB
Stream size                              : 528 KiB
Stream size                              : 528 KiB
Stream size                              : 527.8 KiB
Stream size                              : 528 KiB (100%)
Proportion of this stream                : 0.99896
Writing library                          : LAME3.99r
Writing library                          : LAME3.99r
Encoding settings                        : -m j -V 4 -q 3 -lowpass 15.1 -b 96

